<?xml version="1.0" standalone="no"?>
<!DOCTYPE svg PUBLIC "-//W3C//DTD SVG 20010904//EN"
 "http://www.w3.org/TR/2001/REC-SVG-20010904/DTD/svg10.dtd">
<svg version="1.0" xmlns="http://www.w3.org/2000/svg"
 width="546.000000pt" height="782.000000pt" viewBox="0 0 546.000000 782.000000"
 preserveAspectRatio="xMidYMid meet">

<g transform="translate(0.000000,782.000000) scale(0.100000,-0.100000)"
fill="#000000" stroke="none">
<path d="M2453 7794 c-205 -29 -399 -91 -608 -193 -907 -443 -1591 -1557
-1784 -2906 -71 -490 -71 -1080 0 -1570 193 -1349 877 -2463 1784 -2906 305
-149 559 -209 885 -209 326 0 580 60 885 209 907 443 1591 1557 1784 2906 70
488 70 1082 0 1570 -240 1671 -1216 2932 -2400 3100 -129 18 -419 18 -546 -1z
m-767 -1915 c211 -37 332 -108 549 -320 83 -81 161 -152 175 -157 39 -15 66 2
84 50 18 49 36 184 36 270 l0 58 1075 0 c1168 0 1101 3 1155 -55 24 -26 25
-32 32 -213 3 -103 7 -289 7 -414 l1 -228 -40 0 c-37 0 -40 2 -40 28 0 16 -7
71 -16 123 -59 346 -172 555 -344 637 -36 17 -94 35 -130 41 -37 6 -402 13
-856 16 l-790 6 3 -393 c7 -816 6 -814 93 -993 100 -206 245 -333 445 -391 78
-22 661 -33 789 -14 289 42 378 171 404 582 l7 113 28 3 27 3 -2 -733 -3 -733
-25 0 c-25 0 -25 1 -33 115 -24 351 -107 497 -307 539 -102 22 -323 41 -535
47 -218 5 -386 23 -467 50 -138 45 -308 212 -383 377 -25 55 -81 256 -135 492
-121 520 -346 855 -660 982 -196 79 -462 67 -645 -30 -83 -44 -181 -145 -228
-234 -108 -206 -114 -498 -16 -702 47 -97 151 -210 259 -280 81 -52 316 -171
475 -241 361 -157 574 -282 715 -417 140 -133 223 -274 271 -458 22 -81 24
-111 24 -305 0 -229 -10 -302 -60 -449 -72 -212 -224 -410 -405 -529 l-65 -42
887 0 c840 0 892 1 1005 20 209 36 316 76 391 150 115 111 187 286 228 548 21
139 18 132 60 132 l36 0 -7 -417 c-6 -318 -10 -424 -21 -444 -31 -60 47 -57
-1424 -62 -1215 -3 -1359 -5 -1485 -21 -163 -21 -277 -13 -434 30 -264 72
-457 209 -572 405 -190 326 -282 678 -264 1007 7 119 8 122 30 122 20 0 25 -6
29 -42 3 -24 10 -86 16 -138 53 -443 219 -849 440 -1071 84 -85 135 -122 239
-174 116 -59 204 -77 366 -78 211 0 353 40 490 138 167 119 251 285 276 545
31 326 -45 557 -248 751 -132 126 -325 238 -653 379 -367 158 -541 258 -671
389 -175 174 -249 366 -249 639 0 199 33 349 110 502 64 127 188 271 303 349
99 67 258 126 392 144 63 8 204 7 261 -4z"/>
</g>
</svg>
